<svg xmlns="http://www.w3.org/2000/svg" width="259" height="111"><defs><clipPath id="clip-_404-lite"><path d="M0 0h259v111H0z"/></clipPath><style>.cls-3{fill:#2f2e41}.cls-10,.cls-4{fill:#959595}.cls-5{fill:none;stroke:#3f3d56;stroke-miterlimit:10}.cls-6{opacity:.1}.cls-8{fill:#57b894}.cls-9{fill:#fff}.cls-10{opacity:.3}</style></defs><g id="_404-lite" data-name="404-lite" clip-path="url(#clip-_404-lite)"><path fill="transparent" d="M0 0h259v111H0z"/><g id="Group_66" data-name="Group 66" transform="translate(3 -31.806)"><ellipse id="Ellipse_31" data-name="Ellipse 31" cx="124.458" cy="8.239" rx="124.458" ry="8.239" transform="translate(3.101 121.364)" fill="#f2f2f2"/><path id="Path_189" data-name="Path 189" class="cls-3" d="M470.666 324.894c-20.278 0-34.837 13.01-34.837 43.365 0 34.4 14.559 43.51 34.837 43.51s35.7-9.974 35.7-43.51c.004-35.848-15.423-43.365-35.7-43.365zm.133 75.455c-14.045 0-21.382-8.24-21.382-32.068 0-21.025 7.638-32.113 21.683-32.113s21.683 7.283 21.683 32.113c0 23.228-7.938 32.068-21.983 32.068z" transform="translate(-347.876 -285.49)"/><path id="Path_190" data-name="Path 190" class="cls-4" d="M180.738 398.828h-8.384V374.14a4.944 4.944 0 00-4.944-4.944h-1.965a4.944 4.944 0 00-4.944 4.944v24.689h-23.649a2.823 2.823 0 01-2.5-4.141l25.029-47.372a4.944 4.944 0 00-2.26-6.781l-1.478-.7a4.944 4.944 0 00-6.472 2.14l-30.521 57.107a6.7 6.7 0 00-.792 3.161 6.7 6.7 0 006.7 6.7H160.5v15.612a5.927 5.927 0 005.927 5.927 5.927 5.927 0 005.927-5.927v-15.608h8.384a5.059 5.059 0 005.059-5.059 5.059 5.059 0 00-5.059-5.059z" transform="translate(-104.927 -296.545)"/><path id="Path_191" data-name="Path 191" class="cls-4" d="M838.734 398.828h-8.384V374.14a4.944 4.944 0 00-4.944-4.944h-1.964a4.944 4.944 0 00-4.944 4.944v24.689h-23.649a2.823 2.823 0 01-2.5-4.141l25.029-47.372a4.944 4.944 0 00-2.26-6.781l-1.478-.7a4.944 4.944 0 00-6.472 2.14l-30.526 57.105a6.7 6.7 0 00-.792 3.161 6.7 6.7 0 006.7 6.7h35.95v15.612a5.927 5.927 0 005.927 5.927 5.927 5.927 0 005.927-5.927v-15.606h8.384a5.059 5.059 0 005.059-5.059 5.059 5.059 0 00-5.06-5.059z" transform="translate(-607.677 -296.545)"/><path id="Path_192" data-name="Path 192" class="cls-5" d="M190.541 386.575h-8.384v-24.688a4.944 4.944 0 00-4.944-4.944h-1.965a4.944 4.944 0 00-4.944 4.944v24.688h-23.649a2.823 2.823 0 01-2.5-4.141l25.029-47.372a4.944 4.944 0 00-2.26-6.781l-1.478-.7a4.944 4.944 0 00-6.472 2.14l-30.526 57.105a6.7 6.7 0 00-.792 3.161 6.7 6.7 0 006.7 6.7H170.3v15.612a5.927 5.927 0 005.927 5.927 5.927 5.927 0 005.927-5.927v-15.605h8.384a5.059 5.059 0 005.059-5.059 5.059 5.059 0 00-5.059-5.059z" transform="translate(-112.417 -287.183)"/><path id="Path_193" data-name="Path 193" class="cls-5" d="M857.114 386.575h-8.384v-24.688a4.944 4.944 0 00-4.944-4.944h-1.964a4.944 4.944 0 00-4.944 4.944v24.689h-23.65a2.823 2.823 0 01-2.5-4.141l25.029-47.372a4.944 4.944 0 00-2.26-6.781l-1.477-.7a4.944 4.944 0 00-6.472 2.14l-30.526 57.105a6.7 6.7 0 00-.792 3.161 6.7 6.7 0 006.7 6.7h35.938V412.3a5.927 5.927 0 005.927 5.927 5.927 5.927 0 005.927-5.927v-15.606h8.384a5.059 5.059 0 005.059-5.059 5.059 5.059 0 00-5.051-5.06z" transform="translate(-621.719 -287.183)"/><path id="Path_194" data-name="Path 194" class="cls-5" d="M490.271 313.866c-20.278 0-34.837 13.01-34.837 43.365 0 34.4 14.559 43.51 34.837 43.51s35.7-9.974 35.7-43.51c.004-35.848-15.423-43.365-35.7-43.365zm.133 75.455c-14.045 0-21.382-8.24-21.382-32.068 0-21.025 7.638-32.113 21.683-32.113s21.683 7.283 21.683 32.113c0 23.228-7.938 32.068-21.983 32.068z" transform="translate(-362.856 -277.064)"/><path id="Path_206" data-name="Path 206" class="cls-6" d="M595.193 163.234h-.111a3.043 3.043 0 010 6.082h.111a3.044 3.044 0 100-6.088z" transform="translate(-469.555 -161.972)"/><path id="Path_207" data-name="Path 207" class="cls-6" d="M524.338 163.234h.111a3.043 3.043 0 000 6.082h-.111a3.044 3.044 0 010-6.088z" transform="translate(-413.176 -161.972)"/><path id="Path_209" data-name="Path 209" d="M674.14 287.535s.767 2.211 1.47 1.622l-.56-2.89z" transform="translate(-529.96 -255.976)" fill="#fbbebe"/><path id="Path_210" data-name="Path 210" class="cls-8" d="M1059.446 546.586a4.911 4.911 0 10.654-9.418l.123 2.527-1.2-2.166a4.892 4.892 0 00-2.521 2.766 4.821 4.821 0 00-.282 1.328 4.91 4.91 0 003.222 4.962z" transform="translate(-821.886 -447.598)"/><path id="Path_211" data-name="Path 211" class="cls-5" d="M1092 562.233c-.422-2.149 1.407-4.055 3.214-5.294s3.918-2.456 4.534-4.558c.886-3.021-1.753-5.788-3.807-8.173a29.567 29.567 0 01-3.9-5.794 7.977 7.977 0 01-.932-2.635 9.092 9.092 0 01.7-3.949q2.166-6.383 4.631-12.658" transform="translate(-848.527 -433.93)"/><path id="Path_212" data-name="Path 212" class="cls-5" d="M1060.3 543.828a4.911 4.911 0 10.654-9.418l.123 2.527-1.2-2.166a4.892 4.892 0 00-2.521 2.766 4.811 4.811 0 00-.282 1.328 4.909 4.909 0 003.226 4.963z" transform="translate(-822.535 -445.49)"/><path id="Path_213" data-name="Path 213" class="cls-8" d="M1091.5 505a4.9 4.9 0 013.534-3.114l.4 2.4.75-2.524A4.91 4.91 0 111091.5 505z" transform="translate(-848.619 -420.629)"/><path id="Path_214" data-name="Path 214" class="cls-5" d="M1092.635 501.32a4.9 4.9 0 013.534-3.114l.4 2.4.75-2.524a4.91 4.91 0 11-4.688 3.235z" transform="translate(-849.49 -417.819)"/><path id="Path_215" data-name="Path 215" class="cls-8" d="M1097.557 594.636a4.91 4.91 0 004.346-8.735l-.576 1.939-.408-2.431h-.012a4.91 4.91 0 00-3.349 9.232z" transform="translate(-851.003 -484.309)"/><path id="Path_216" data-name="Path 216" class="cls-5" d="M1098.557 590.911a4.91 4.91 0 004.346-8.735l-.576 1.939-.408-2.431h-.012a4.91 4.91 0 10-3.349 9.232z" transform="translate(-851.767 -481.463)"/><path id="Path_217" data-name="Path 217" class="cls-8" d="M1086.136 641.405a4.908 4.908 0 10.946-3.845l2.188 3.293-2.989-1.748a4.864 4.864 0 00-.145 2.3z" transform="translate(-844.692 -522.924)"/><path id="Path_218" data-name="Path 218" class="cls-5" d="M1086.986 638.648a4.908 4.908 0 10.946-3.845l2.188 3.293-2.989-1.748a4.864 4.864 0 00-.145 2.3z" transform="translate(-845.341 -520.818)"/><path id="Path_219" data-name="Path 219" class="cls-8" d="M65.18 607.865a3.226 3.226 0 10.43-6.187l.081 1.661-.786-1.423a3.214 3.214 0 00-1.656 1.817 3.163 3.163 0 00-.186.873 3.226 3.226 0 002.117 3.259z" transform="translate(-63.054 -496.915)"/><path id="Path_220" data-name="Path 220" class="cls-5" d="M86.57 618.145c-.277-1.412.924-2.664 2.111-3.478s2.574-1.613 2.979-2.994c.582-1.985-1.152-3.8-2.5-5.37a19.424 19.424 0 01-2.56-3.803 5.241 5.241 0 01-.613-1.731 5.974 5.974 0 01.461-2.594q1.423-4.193 3.043-8.317" transform="translate(-80.556 -487.935)"/><path id="Path_221" data-name="Path 221" class="cls-5" d="M65.743 606.053a3.226 3.226 0 10.43-6.187l.081 1.661-.786-1.423a3.214 3.214 0 00-1.656 1.817 3.164 3.164 0 00-.186.873 3.226 3.226 0 002.117 3.259z" transform="translate(-63.484 -495.531)"/><path id="Path_222" data-name="Path 222" class="cls-8" d="M86.239 580.541a3.223 3.223 0 012.322-2.046l.266 1.579.492-1.658a3.226 3.226 0 11-3.08 2.125z" transform="translate(-80.621 -479.196)"/><path id="Path_223" data-name="Path 223" class="cls-5" d="M86.99 578.125a3.223 3.223 0 012.322-2.046l.266 1.579.493-1.658a3.226 3.226 0 11-3.08 2.125z" transform="translate(-81.195 -477.35)"/><path id="Path_224" data-name="Path 224" class="cls-8" d="M90.224 639.435a3.226 3.226 0 002.855-5.739l-.379 1.274-.268-1.6h-.008a3.226 3.226 0 10-2.2 6.065z" transform="translate(-82.188 -521.035)"/><path id="Path_225" data-name="Path 225" class="cls-5" d="M90.875 636.988a3.226 3.226 0 002.855-5.739l-.378 1.274-.268-1.6h-.008a3.226 3.226 0 10-2.2 6.065z" transform="translate(-82.685 -519.166)"/><path id="Path_226" data-name="Path 226" class="cls-8" d="M82.715 670.163a3.225 3.225 0 10.622-2.526l1.437 2.163-1.964-1.148a3.2 3.2 0 00-.095 1.511z" transform="translate(-78.038 -546.406)"/><path id="Path_227" data-name="Path 227" class="cls-5" d="M83.279 668.351a3.225 3.225 0 10.622-2.526l1.437 2.164-1.964-1.148a3.2 3.2 0 00-.095 1.51z" transform="translate(-78.469 -545.022)"/><ellipse id="Ellipse_36" data-name="Ellipse 36" class="cls-3" cx="4.011" cy="5.191" rx="4.011" ry="5.191" transform="translate(109.464 70.101)"/><ellipse id="Ellipse_37" data-name="Ellipse 37" class="cls-3" cx="4.011" cy="5.191" rx="4.011" ry="5.191" transform="translate(131.288 70.219)"/><path id="Path_228" data-name="Path 228" class="cls-3" d="M576.128 528.747c0 2.345-3.275 4.247-7.314 4.247s-7.314-1.9-7.314-4.247c0-2.031 2.456-3.73 5.738-4.145a11.825 11.825 0 011.576-.1 11.959 11.959 0 012.626.283c2.742.609 4.688 2.154 4.688 3.962z" transform="translate(-443.896 -438.001)"/><ellipse id="Ellipse_38" data-name="Ellipse 38" class="cls-5" cx="4.011" cy="5.191" rx="4.011" ry="5.191" transform="translate(110.407 68.922)"/><ellipse id="Ellipse_39" data-name="Ellipse 39" class="cls-5" cx="4.011" cy="5.191" rx="4.011" ry="5.191" transform="translate(132.232 69.04)"/><ellipse id="Ellipse_40" data-name="Ellipse 40" class="cls-5" cx="7.314" cy="4.247" rx="7.314" ry="4.247" transform="translate(118.547 85.32)"/><path id="Path_229" data-name="Path 229" class="cls-9" d="M589.481 524.755a1.164 1.164 0 01-.311.8 1.024 1.024 0 01-.75.332h-2.36a1.1 1.1 0 01-1.06-1.132 1.157 1.157 0 01.193-.647 11.087 11.087 0 011.576-.108 11.245 11.245 0 012.626.3 1.2 1.2 0 01.086.455z" transform="translate(-461.85 -437.619)"/><circle id="Ellipse_41" data-name="Ellipse 41" class="cls-9" cx="1.18" cy="1.18" r="1.18" transform="translate(113.239 71.517)"/><circle id="Ellipse_42" data-name="Ellipse 42" class="cls-9" cx="1.18" cy="1.18" r="1.18" transform="translate(135.181 71.517)"/><circle id="Ellipse_43" data-name="Ellipse 43" class="cls-10" cx="1.18" cy="1.18" r="1.18" transform="translate(136.361 82.606)"/><circle id="Ellipse_44" data-name="Ellipse 44" class="cls-10" cx="1.18" cy="1.18" r="1.18" transform="translate(107.576 82.606)"/></g></g></svg>